<?xml version="1.0" standalone="no"?>
<!DOCTYPE svg PUBLIC "-//W3C//DTD SVG 20010904//EN"
 "http://www.w3.org/TR/2001/REC-SVG-20010904/DTD/svg10.dtd">
<svg version="1.0" xmlns="http://www.w3.org/2000/svg"
 width="1374.000000pt" height="1374.000000pt" viewBox="0 0 1374.000000 1374.000000"
 preserveAspectRatio="xMidYMid meet">
<metadata>
Created by potrace 1.14, written by Peter Selinger 2001-2017
</metadata>
<g transform="translate(0.000000,1374.000000) scale(0.100000,-0.100000)"
fill="#000000" stroke="none">
<path d="M7045 13464 c-566 -102 -1001 -548 -1091 -1116 -20 -124 -14 -362 11
-478 71 -326 258 -613 524 -809 88 -65 261 -154 367 -190 195 -65 468 -84 659
-47 273 53 491 166 690 358 205 196 326 415 387 701 28 133 30 369 4 501 -52
264 -167 491 -348 682 -195 205 -465 350 -743 398 -113 20 -350 20 -460 0z"/>
<path d="M4225 11159 c-167 -23 -375 -108 -506 -208 -510 -388 -571 -1126
-132 -1592 516 -546 1416 -404 1743 276 248 513 43 1132 -464 1406 -186 100
-436 146 -641 118z"/>
<path d="M7997 9459 c-149 -19 -289 -90 -397 -199 -78 -80 -131 -167 -167
-275 -23 -69 -27 -97 -27 -205 -1 -105 3 -136 23 -195 40 -121 89 -204 171
-285 139 -139 287 -202 475 -204 133 -1 191 12 314 71 77 37 108 59 176 126
88 89 131 155 172 269 24 66 27 87 27 213 0 126 -2 148 -27 221 -72 216 -252
386 -469 443 -92 24 -184 31 -271 20z"/>
<path d="M10105 8960 c-135 -28 -287 -102 -388 -188 -286 -244 -383 -638 -241
-980 48 -115 110 -206 203 -294 176 -169 393 -248 641 -235 124 7 195 25 309
78 548 256 665 980 227 1397 -93 88 -202 153 -326 194 -86 28 -109 31 -240 34
-80 2 -163 -1 -185 -6z"/>
<path d="M6213 8776 c-183 -46 -336 -192 -395 -376 -26 -84 -28 -221 -4 -305
89 -305 412 -474 709 -370 90 31 155 74 222 147 223 241 185 624 -80 813 -96
69 -180 97 -300 101 -62 2 -120 -2 -152 -10z"/>
<path d="M3195 8276 c-513 -101 -821 -615 -663 -1106 83 -260 283 -462 543
-549 212 -71 430 -59 632 34 303 140 493 436 494 772 0 165 -22 256 -97 404
-106 207 -301 363 -534 429 -97 27 -278 35 -375 16z"/>
<path d="M5351 7539 c-112 -19 -233 -100 -295 -197 -50 -79 -69 -157 -63 -260
4 -81 9 -102 40 -166 97 -196 316 -291 525 -227 203 61 341 282 303 486 -35
188 -182 335 -366 365 -67 11 -69 11 -144 -1z"/>
<path d="M7902 7484 c-103 -27 -172 -82 -222 -175 -27 -52 -34 -78 -38 -139
-5 -89 6 -136 50 -210 89 -148 283 -207 439 -133 202 95 270 330 148 512 -48
71 -122 125 -204 146 -71 18 -104 18 -173 -1z"/>
<path d="M11932 6969 c-158 -20 -339 -89 -471 -178 -317 -216 -504 -617 -462
-991 43 -383 261 -692 605 -860 397 -194 871 -120 1197 187 97 92 161 180 224
308 64 131 91 221 106 366 33 299 -72 609 -284 836 -229 246 -585 375 -915
332z"/>
<path d="M8861 6909 c-129 -25 -252 -122 -313 -246 -32 -65 -33 -73 -33 -184
0 -113 1 -117 37 -190 46 -93 122 -168 215 -212 64 -30 75 -32 178 -32 103 0
114 2 178 32 182 86 286 276 256 466 -39 245 -277 413 -518 366z"/>
<path d="M5267 6290 c-105 -18 -195 -84 -247 -182 -29 -54 -35 -75 -38 -148
-3 -69 0 -96 18 -142 44 -118 167 -211 296 -224 213 -22 403 169 381 383 -15
146 -139 286 -272 308 -76 12 -90 13 -138 5z"/>
<path d="M3785 5894 c-11 -2 -45 -9 -75 -15 -90 -17 -226 -89 -303 -159 -161
-148 -235 -327 -225 -544 9 -177 75 -324 203 -451 132 -131 259 -186 448 -193
89 -3 135 0 190 13 204 48 379 193 466 387 170 376 -32 814 -432 937 -65 20
-229 35 -272 25z"/>
<path d="M9400 5660 c-118 -15 -231 -71 -315 -155 -213 -213 -217 -545 -9
-765 145 -153 361 -209 561 -145 348 110 491 524 287 830 -109 166 -324 262
-524 235z"/>
<path d="M7583 4571 c-91 -33 -167 -104 -207 -190 -30 -66 -30 -216 1 -283 30
-66 105 -143 172 -175 49 -25 68 -28 151 -28 84 0 101 3 150 28 75 39 133 98
167 171 24 52 28 74 28 146 0 71 -4 94 -26 141 -36 77 -87 130 -161 169 -81
44 -192 52 -275 21z"/>
<path d="M5062 4500 c-103 -27 -166 -64 -248 -146 -135 -134 -189 -312 -149
-497 39 -187 180 -346 362 -408 96 -33 250 -33 344 -1 166 57 294 185 351 350
32 95 32 249 0 344 -44 128 -145 249 -259 311 -68 36 -191 67 -267 66 -34 0
-94 -9 -134 -19z"/>
<path d="M6500 4160 c-158 -58 -264 -187 -292 -354 -14 -85 1 -170 47 -263
113 -228 418 -309 628 -164 287 197 254 616 -60 764 -60 28 -80 32 -168 34
-81 3 -110 0 -155 -17z"/>
<path d="M1220 4164 c-244 -31 -465 -116 -653 -252 -97 -70 -256 -233 -320
-330 -229 -343 -292 -770 -171 -1153 147 -466 529 -810 1014 -915 102 -22 324
-29 432 -15 523 70 954 430 1112 930 82 260 79 565 -10 830 -104 310 -352 601
-642 754 -105 55 -262 110 -374 132 -82 16 -320 27 -388 19z"/>
<path d="M8905 4006 c-202 -53 -362 -181 -450 -359 -59 -119 -78 -211 -72
-342 15 -317 241 -578 557 -641 147 -29 275 -10 429 63 79 38 108 59 176 127
67 66 91 99 129 176 25 52 53 127 61 165 71 339 -119 676 -447 792 -61 21 -94
26 -203 29 -86 2 -147 -1 -180 -10z"/>
<path d="M12235 3689 c-320 -38 -597 -177 -823 -414 -430 -449 -491 -1137
-146 -1657 123 -187 321 -362 522 -462 99 -50 257 -102 366 -121 117 -20 336
-20 457 1 508 87 930 471 1063 967 39 144 49 243 43 406 -10 267 -76 473 -221
691 -196 293 -512 504 -858 571 -120 23 -295 31 -403 18z"/>
<path d="M7275 2630 c-338 -52 -619 -306 -706 -640 -29 -111 -32 -291 -6 -399
75 -315 313 -559 621 -640 436 -114 887 131 1029 559 156 471 -118 973 -599
1100 -91 24 -252 33 -339 20z"/>
<path d="M4404 2386 c-231 -44 -423 -146 -581 -309 -95 -98 -151 -178 -209
-301 -147 -311 -129 -689 47 -987 146 -248 381 -424 667 -501 121 -32 337 -36
472 -8 580 119 957 690 836 1266 -83 396 -382 710 -777 820 -116 32 -340 42
-455 20z"/>
</g>
</svg>
